<svg width="17" height="16" viewBox="0 0 17 16" fill="none" xmlns="http://www.w3.org/2000/svg">
<path d="M14.3513 7.62765H15.293V15.0983C15.293 15.2971 15.2486 15.4436 15.1596 15.5378C15.0707 15.632 14.9216 15.6843 14.7123 15.6947H10.2707C10.1452 15.6947 10.0353 15.6477 9.94112 15.5535C9.84695 15.4593 9.79987 15.3442 9.79987 15.2082V10.9706C9.81033 10.7614 9.77894 10.5547 9.7057 10.3507C9.63246 10.1467 9.52259 9.9714 9.37611 9.82491C9.19823 9.64704 8.98112 9.52933 8.72478 9.47178C8.46843 9.41424 8.21993 9.43255 7.97928 9.52671C7.73862 9.62088 7.53721 9.76737 7.37503 9.96617C7.21285 10.165 7.12653 10.3952 7.11607 10.6567C7.1056 10.7614 7.10037 10.9235 7.10037 11.1433V15.0983C7.10037 15.3076 7.05329 15.4593 6.95912 15.5535C6.86495 15.6477 6.71323 15.6947 6.50397 15.6947H2.20361C1.98389 15.6947 1.82694 15.645 1.73277 15.5456C1.6386 15.4462 1.59152 15.2867 1.59152 15.067V7.62765H2.5332V14.4863C2.5332 14.6432 2.61167 14.7217 2.76862 14.7217H5.89188C6.04882 14.7217 6.1273 14.6432 6.1273 14.4863V10.8137C6.1273 10.3952 6.2267 10.0106 6.4255 9.66012C6.6243 9.3096 6.89895 9.0271 7.24947 8.8126C7.59999 8.59811 7.98451 8.49086 8.40303 8.49086C8.77971 8.49086 9.13546 8.57718 9.47028 8.74983C9.8051 8.92247 10.0824 9.1605 10.3021 9.46394C10.5218 9.76737 10.6578 10.1074 10.7102 10.4841C10.7206 10.5783 10.7259 10.7247 10.7259 10.9235V14.4863C10.7259 14.6013 10.7363 14.6694 10.7572 14.6903C10.7782 14.7112 10.8462 14.7217 10.9613 14.7217H14.1159C14.1996 14.7217 14.2572 14.706 14.2886 14.6746C14.32 14.6432 14.3356 14.5857 14.3356 14.5019V7.62765H14.3513ZM16.9096 6.10526C16.6794 5.92739 16.3289 5.66581 15.858 5.32052C12.7296 3.01863 10.3806 1.29744 8.8111 0.156954C8.71693 0.0523224 8.59922 6.67572e-06 8.45797 6.67572e-06C8.31671 6.67572e-06 8.19377 0.0523224 8.08914 0.156954L1.10498 5.27344C0.759695 5.53502 0.393485 5.80706 0.00634766 6.08957L0.555664 6.85861L1.87402 5.88553C3.00404 5.05894 4.70431 3.81383 6.97481 2.15019L8.30887 1.16142C8.35072 1.11957 8.3978 1.09864 8.45012 1.09864C8.50243 1.09864 8.54429 1.11957 8.57568 1.16142L16.376 6.8743L16.4074 6.90569L16.9567 6.13665L16.9253 6.10526H16.9096Z" fill="white"/>
</svg>
