<svg width="22" height="22" viewBox="0 0 22 22" fill="none" xmlns="http://www.w3.org/2000/svg">
<g clip-path="url(#clip0_3_29)">
<g clip-path="url(#clip1_3_29)">
<g clip-path="url(#clip2_3_29)">
<path d="M10.7392 5.27102C7.6924 5.27102 5.23485 7.7478 5.23485 10.8184C5.23485 13.889 7.6924 16.3658 10.7392 16.3658C13.7859 16.3658 16.2435 13.889 16.2435 10.8184C16.2435 7.7478 13.7859 5.27102 10.7392 5.27102ZM10.7392 14.425C8.77026 14.425 7.16065 12.8076 7.16065 10.8184C7.16065 8.82929 8.76548 7.21189 10.7392 7.21189C12.7129 7.21189 14.3177 8.82929 14.3177 10.8184C14.3177 12.8076 12.7081 14.425 10.7392 14.425ZM17.7525 5.0441C17.7525 5.76348 17.1776 6.33802 16.4687 6.33802C15.7549 6.33802 15.1848 5.75865 15.1848 5.0441C15.1848 4.32955 15.7597 3.75018 16.4687 3.75018C17.1776 3.75018 17.7525 4.32955 17.7525 5.0441ZM21.3981 6.35733C21.3167 4.62406 20.9238 3.08874 19.6639 1.82379C18.4088 0.558846 16.8854 0.162946 15.1656 0.0760418C13.3931 -0.0253473 8.08044 -0.0253473 6.30793 0.0760418C4.59293 0.158118 3.06954 0.554018 1.80962 1.81897C0.549713 3.08392 0.161681 4.61924 0.0754509 6.3525C-0.0251503 8.13888 -0.0251503 13.4932 0.0754509 15.2795C0.15689 17.0129 0.549713 18.5481 1.80962 19.8131C3.06954 21.078 4.58813 21.474 6.30793 21.5608C8.08044 21.6622 13.3931 21.6622 15.1656 21.5608C16.8854 21.4787 18.4088 21.0829 19.6639 19.8131C20.9191 18.5481 21.3119 17.0129 21.3981 15.2795C21.4987 13.4932 21.4987 8.1437 21.3981 6.35733ZM19.1083 17.1962C18.7346 18.1426 18.0112 18.8716 17.0675 19.253C15.6543 19.8179 12.3009 19.6875 10.7392 19.6875C9.17746 19.6875 5.8193 19.8131 4.41089 19.253C3.47194 18.8765 2.74857 18.1474 2.37012 17.1962C1.80962 15.772 1.93897 12.3924 1.93897 10.8184C1.93897 9.2445 1.81442 5.86004 2.37012 4.44059C2.74377 3.4943 3.46715 2.76526 4.41089 2.38384C5.82409 1.81897 9.17746 1.94932 10.7392 1.94932C12.3009 1.94932 15.659 1.8238 17.0675 2.38384C18.0064 2.76043 18.7298 3.48947 19.1083 4.44059C19.6687 5.86487 19.5394 9.2445 19.5394 10.8184C19.5394 12.3924 19.6687 15.7769 19.1083 17.1962Z" fill="white"/>
</g>
</g>
</g>
<defs>
<clipPath id="clip0_3_29">
<rect width="21.6369" height="21.6369" fill="white"/>
</clipPath>
<clipPath id="clip1_3_29">
<rect width="21.6369" height="21.6369" fill="white"/>
</clipPath>
<clipPath id="clip2_3_29">
<rect width="21.6369" height="21.6369" fill="white"/>
</clipPath>
</defs>
</svg>
