<svg width="29" height="30" viewBox="0 0 29 30" fill="none" xmlns="http://www.w3.org/2000/svg">
<g clip-path="url(#clip0_3_30)">
<g clip-path="url(#clip1_3_30)">
<g clip-path="url(#clip2_3_30)">
<path d="M15.0047 4.73608C15.727 4.74006 17.5342 4.75753 19.4543 4.83444L20.1351 4.86413C22.0683 4.95566 24 5.11202 24.9579 5.37914C26.2357 5.73813 27.2402 6.78562 27.5797 8.11341C28.1202 10.2219 28.1878 14.3372 28.1962 15.3331L28.1974 15.5395V15.5539C28.1974 15.5539 28.1974 15.5589 28.1974 15.5685L28.1962 15.7749C28.1878 16.7708 28.1202 20.8861 27.5797 22.9946C27.2355 24.3272 26.231 25.3748 24.9579 25.7289C24 25.9959 22.0683 26.1523 20.1351 26.2438L19.4543 26.2734C17.5342 26.3504 15.727 26.3678 15.0047 26.3719L14.6877 26.373H14.6737C14.6737 26.373 14.6689 26.373 14.6596 26.373L14.3429 26.3719C12.8141 26.3635 6.42221 26.2944 4.38929 25.7289C3.11141 25.3698 2.10703 24.3223 1.7675 22.9946C1.227 20.8861 1.15944 16.7708 1.151 15.7749V15.3331C1.15944 14.3372 1.227 10.2219 1.7675 8.11341C2.11173 6.7807 3.11612 5.73322 4.38929 5.37914C6.42221 4.81348 12.8141 4.7445 14.3429 4.73608H15.0047ZM11.9689 10.8206V20.2872L20.0831 15.5539L11.9689 10.8206Z" fill="white"/>
</g>
</g>
</g>
<defs>
<clipPath id="clip0_3_30">
<rect width="28.4044" height="21.6369" fill="white" transform="translate(0 4.73608)"/>
</clipPath>
<clipPath id="clip1_3_30">
<rect width="28.4044" height="21.6369" fill="white" transform="translate(0 4.73608)"/>
</clipPath>
<clipPath id="clip2_3_30">
<rect width="28.3984" height="21.6369" fill="white" transform="translate(0.00280762 4.73608)"/>
</clipPath>
</defs>
</svg>
